<svg width="517" height="316" viewBox="0 0 517 316" fill="none" xmlns="http://www.w3.org/2000/svg">
<path d="M14 298C20.0751 298 25 293.075 25 287C25 280.925 20.0751 276 14 276C7.92487 276 3 280.925 3 287C3 293.075 7.92487 298 14 298Z" fill="white" stroke="#C4E4C7" stroke-width="6" stroke-linecap="round" stroke-linejoin="round"/>
<path d="M22 165C28.0751 165 33 160.075 33 154C33 147.925 28.0751 143 22 143C15.9249 143 11 147.925 11 154C11 160.075 15.9249 165 22 165Z" fill="white" stroke="#C4E4C7" stroke-width="6" stroke-linecap="round" stroke-linejoin="round"/>
<path d="M39 25C45.0751 25 50 20.0751 50 14C50 7.92487 45.0751 3 39 3C32.9249 3 28 7.92487 28 14C28 20.0751 32.9249 25 39 25Z" fill="white" stroke="#C4E4C7" stroke-width="6" stroke-linecap="round" stroke-linejoin="round"/>
<path d="M34 154H175M25 287H52.602C57.376 287 61.9924 285.292 65.617 282.185L89.383 261.815C93.0076 258.708 97.624 257 102.398 257H166L25 287ZM50 14H77.268C82.2431 14.0001 87.0396 15.8544 90.721 19.201L134.28 58.8C137.961 62.146 142.757 64 147.732 64H211L50 14Z" stroke="#C4E4C7" stroke-width="6" stroke-linecap="square"/>
<path d="M75 122C81.0751 122 86 117.075 86 111C86 104.925 81.0751 100 75 100C68.9249 100 64 104.925 64 111C64 117.075 68.9249 122 75 122Z" fill="white" stroke="#C4E4C7" stroke-width="6" stroke-linecap="round" stroke-linejoin="round"/>
<path d="M87 111H228" stroke="#C4E4C7" stroke-width="6" stroke-linecap="square"/>
<path d="M53 225C59.0751 225 64 220.075 64 214C64 207.925 59.0751 203 53 203C46.9249 203 42 207.925 42 214C42 220.075 46.9249 225 53 225Z" fill="white" stroke="#C4E4C7" stroke-width="6" stroke-linecap="round" stroke-linejoin="round"/>
<path d="M65 214H206" stroke="#C4E4C7" stroke-width="6" stroke-linecap="square"/>
<path d="M464 313C457.925 313 453 308.075 453 302C453 295.925 457.925 291 464 291C470.075 291 475 295.925 475 302C475 308.075 470.075 313 464 313Z" fill="white" stroke="#C4E4C7" stroke-width="6" stroke-linecap="round" stroke-linejoin="round"/>
<path d="M462.5 164C456.425 164 451.5 159.075 451.5 153C451.5 146.925 456.425 142 462.5 142C468.575 142 473.5 146.925 473.5 153C473.5 159.075 468.575 164 462.5 164Z" fill="white" stroke="#C4E4C7" stroke-width="6" stroke-linecap="round" stroke-linejoin="round"/>
<path d="M499 85C492.925 85 488 80.0751 488 74C488 67.9249 492.925 63 499 63C505.075 63 510 67.9249 510 74C510 80.0751 505.075 85 499 85Z" fill="white" stroke="#C4E4C7" stroke-width="6" stroke-linecap="round" stroke-linejoin="round"/>
<path d="M488 74H460.398C455.624 74.0002 451.008 75.7081 447.383 78.815L423.617 99.185C419.992 102.292 415.376 104 410.602 104H347M452 302H433.398C428.624 302 424.008 300.292 420.383 297.185L396.791 276.963C393.061 273.767 388.286 272.054 383.375 272.153L341 273L452 302Z" stroke="#C4E4C7" stroke-width="6" stroke-linecap="square"/>
<path d="M502.5 225C496.425 225 491.5 220.075 491.5 214C491.5 207.925 496.425 203 502.5 203C508.575 203 513.5 207.925 513.5 214C513.5 220.075 508.575 225 502.5 225Z" fill="white" stroke="#C4E4C7" stroke-width="6" stroke-linecap="round" stroke-linejoin="round"/>
<path d="M450.5 153H352M490.5 214H349.5H490.5Z" stroke="#C4E4C7" stroke-width="6" stroke-linecap="square"/>
<path d="M264.4 33C342.5 33 405.8 95.85 405.8 173.4C405.8 239.9 360.4 292.35 314.35 303.95L285.751 230.433L317.148 212.273L317.432 212.105C319.231 210.998 320.717 209.449 321.747 207.605C322.777 205.761 323.318 203.683 323.317 201.571V161.025C310.175 158.675 300.199 147.182 300.199 133.358C300.199 131.437 300.392 129.561 300.759 127.748L270.777 110.406L270.457 110.226C268.605 109.227 266.529 108.719 264.425 108.751C262.321 108.782 260.261 109.352 258.44 110.406L212.068 137.226L211.785 137.396C209.986 138.503 208.501 140.052 207.47 141.896C206.44 143.74 205.9 145.817 205.9 147.929V201.571L205.904 201.901C205.96 204.013 206.555 206.075 207.634 207.891C208.714 209.707 210.24 211.216 212.068 212.274L244.447 231L214.9 303.75C169.8 292.1 124 238.9 124 173.45C124 95.9 186.3 33 264.4 33Z" fill="#3FA648" stroke="#23552A" stroke-width="9.606" stroke-linecap="round" stroke-linejoin="round"/>
<path d="M288.674 191.062C289.201 191.062 289.723 191.166 290.21 191.368C290.697 191.569 291.14 191.865 291.513 192.238C291.885 192.611 292.181 193.054 292.383 193.541C292.584 194.028 292.688 194.55 292.688 195.077C292.688 195.604 292.584 196.126 292.383 196.613C292.181 197.101 291.885 197.543 291.513 197.916C291.14 198.289 290.697 198.585 290.21 198.786C289.723 198.988 289.201 199.092 288.674 199.092H240.514C239.987 199.092 239.465 198.988 238.978 198.786C238.491 198.584 238.049 198.288 237.676 197.916C237.303 197.543 237.008 197.1 236.806 196.613C236.605 196.126 236.501 195.604 236.501 195.077C236.501 194.55 236.605 194.028 236.806 193.541C237.008 193.054 237.304 192.611 237.676 192.238C238.049 191.865 238.492 191.569 238.979 191.368C239.466 191.166 239.988 191.062 240.515 191.062H288.675H288.674ZM272.621 170.986C273.148 170.986 273.67 171.09 274.157 171.292C274.644 171.494 275.086 171.79 275.459 172.162C275.832 172.535 276.127 172.978 276.329 173.465C276.53 173.952 276.634 174.474 276.634 175.001C276.634 175.528 276.53 176.05 276.329 176.537C276.127 177.024 275.832 177.467 275.459 177.84C275.086 178.212 274.644 178.508 274.157 178.71C273.67 178.912 273.148 179.016 272.621 179.016H240.515C239.988 179.016 239.466 178.912 238.979 178.71C238.492 178.509 238.049 178.213 237.676 177.84C237.304 177.467 237.008 177.025 236.806 176.537C236.605 176.05 236.501 175.528 236.501 175.001C236.501 174.474 236.605 173.952 236.806 173.465C237.008 172.978 237.304 172.535 237.676 172.162C238.049 171.789 238.492 171.493 238.979 171.292C239.466 171.09 239.988 170.986 240.515 170.986H272.621ZM288.674 150.91C289.201 150.91 289.723 151.014 290.21 151.216C290.697 151.417 291.14 151.713 291.513 152.086C291.885 152.459 292.181 152.902 292.383 153.389C292.584 153.876 292.688 154.398 292.688 154.925C292.688 155.452 292.584 155.974 292.383 156.461C292.181 156.949 291.885 157.391 291.513 157.764C291.14 158.137 290.697 158.433 290.21 158.634C289.723 158.836 289.201 158.94 288.674 158.94H240.514C239.987 158.94 239.465 158.836 238.978 158.634C238.491 158.432 238.049 158.136 237.676 157.764C237.303 157.391 237.008 156.948 236.806 156.461C236.605 155.974 236.501 155.452 236.501 154.925C236.501 154.398 236.605 153.876 236.806 153.389C237.008 152.902 237.304 152.459 237.676 152.086C238.049 151.713 238.492 151.417 238.979 151.216C239.466 151.014 239.988 150.91 240.515 150.91H288.675H288.674Z" fill="#23552A"/>
<path d="M322.49 160.006C334.414 160.006 344.08 150.323 344.08 138.378C344.08 126.433 334.414 116.75 322.49 116.75C310.566 116.75 300.9 126.433 300.9 138.378C300.9 150.323 310.566 160.006 322.49 160.006Z" fill="white" stroke="#23552A" stroke-width="9.606" stroke-linecap="round" stroke-linejoin="round"/>
<path d="M329.77 141.235C329.77 142.352 329.572 143.318 329.178 144.134C328.809 144.918 328.268 145.609 327.596 146.157C326.936 146.689 326.186 147.089 325.346 147.355C324.506 147.621 323.639 147.755 322.748 147.755C321.952 147.758 321.16 147.65 320.394 147.432C319.675 147.229 318.99 146.921 318.362 146.517C317.758 146.127 317.227 145.634 316.793 145.062C316.352 144.479 316.025 143.819 315.829 143.116L319.764 141.906C319.953 142.541 320.308 143.065 320.831 143.476C321.354 143.889 321.976 144.096 322.696 144.096C323.433 144.096 324.072 143.872 324.612 143.426C325.152 142.979 325.422 142.317 325.422 141.441C325.422 140.909 325.312 140.462 325.088 140.101C324.874 139.749 324.579 139.453 324.227 139.238C323.858 139.017 323.453 138.865 323.03 138.788C322.589 138.702 322.142 138.659 321.693 138.658C321.041 138.658 320.3 138.731 319.468 138.878C318.637 139.024 317.895 139.217 317.243 139.458L317.681 129.022H328.843V132.732H321.513L321.359 135.618C321.659 135.545 321.964 135.498 322.272 135.476C322.606 135.451 322.91 135.438 323.185 135.438C324.094 135.438 324.951 135.558 325.757 135.798C326.563 136.038 327.262 136.404 327.853 136.893C328.449 137.388 328.927 138.008 329.255 138.71C329.598 139.432 329.769 140.273 329.769 141.235H329.77Z" fill="#23552A"/>
</svg>
